ply
format ascii 1.0
comment Created by Blender 2.82 (sub 7) - www.blender.org, source file: 'Barrel.blend'
element vertex 48
property float x
property float y
property float z
element face 38
property list uchar uint vertex_indices
end_header
0.101955 0.005653 0.176591
0.127409 0.191989 0.220679
-0.000000 0.191989 0.254818
0.000000 0.005653 0.203910
-0.176591 0.005653 0.101955
-0.220679 0.191989 0.127409
-0.254818 0.191989 -0.000000
-0.203910 0.005653 -0.000000
-0.220679 0.191989 -0.127409
-0.176591 0.005653 -0.101955
-0.127409 0.191989 -0.220679
-0.101955 0.005653 -0.176591
-0.000000 0.191989 -0.254818
-0.000000 0.005653 -0.203910
0.127409 0.191989 -0.220679
0.101955 0.005653 -0.176591
0.220679 0.191989 -0.127409
0.176591 0.005653 -0.101955
0.254818 0.191989 -0.000000
0.203910 0.005653 -0.000000
0.220679 0.191989 0.127409
0.176591 0.005653 0.101955
-0.113823 0.588704 0.197147
0.000000 0.588704 0.227646
0.113823 0.588704 0.197147
0.197147 0.588704 0.113823
0.227646 0.588704 -0.000000
0.197147 0.588704 -0.113823
0.113823 0.588704 -0.197147
-0.000000 0.588704 -0.227646
-0.113823 0.588704 -0.197147
-0.197147 0.588704 -0.113823
-0.227646 0.588704 -0.000000
-0.197147 0.588704 0.113823
-0.127409 0.191989 0.220679
-0.101955 0.005653 0.176591
0.220679 0.482219 0.127409
0.127409 0.482219 0.220679
0.254818 0.482219 -0.000000
0.220679 0.482219 -0.127409
0.127409 0.482219 -0.220679
-0.000000 0.482219 -0.254818
-0.127409 0.482219 -0.220679
-0.220679 0.482219 -0.127409
-0.254818 0.482219 -0.000000
-0.220679 0.482219 0.127409
-0.127409 0.482219 0.220679
-0.000000 0.482219 0.254818
4 0 1 2 3
4 4 5 6 7
4 7 6 8 9
4 9 8 10 11
4 11 10 12 13
4 13 12 14 15
4 15 14 16 17
4 17 16 18 19
4 19 18 20 21
4 21 20 1 0
12 22 23 24 25 26 27 28 29 30 31 32 33
4 3 2 34 35
12 3 35 4 7 9 11 13 15 17 19 21 0
4 35 34 5 4
4 36 25 24 37
4 38 26 25 36
4 39 27 26 38
4 40 28 27 39
4 41 29 28 40
4 42 30 29 41
4 43 31 30 42
4 44 32 31 43
4 45 33 32 44
4 46 22 33 45
4 47 23 22 46
4 37 47 2 1
4 36 37 1 20
4 38 36 20 18
4 39 38 18 16
4 40 39 16 14
4 41 40 14 12
4 42 41 12 10
4 43 42 10 8
4 44 43 8 6
4 45 44 6 5
4 46 45 5 34
4 47 46 34 2
4 37 24 23 47
