ply
format ascii 1.0
comment Created by David Piuva using Blender 2.82
comment Exported to the Stanford PLY format using +Y up and +Z forward
comment Import as a right-handed model to have the X-axis negated and faces flipped
element vertex 140
property float x
property float y
property float z
property uchar red
property uchar green
property uchar blue
property uchar alpha
element face 258
property list uchar uint vertex_indices
end_header
0.044974 0.790265 -0.067836 255 255 255 255
0.046599 0.766702 -0.031866 255 255 255 255
0.036492 0.767203 -0.059653 252 252 252 255
0.033708 0.877842 -0.083435 255 255 255 255
0.011577 0.897729 -0.084108 255 255 255 255
0.031381 0.899299 -0.059880 255 255 255 255
-0.000795 0.906181 -0.072427 255 255 255 255
-0.017042 0.890940 -0.088448 255 255 255 255
-0.036446 0.887731 -0.061842 255 255 255 255
0.047560 0.871781 -0.047155 255 255 255 255
0.052362 0.819723 -0.035129 255 255 255 255
0.041108 0.843208 -0.076507 255 255 255 255
0.010221 0.722007 -0.036159 255 255 255 255
-0.011978 0.731469 -0.089727 254 254 254 254
0.014810 0.731296 -0.088524 250 250 250 249
0.015569 0.750362 -0.090054 255 255 255 255
0.014810 0.731296 -0.088524 254 254 254 253
-0.012676 0.749032 -0.095065 255 255 255 255
-0.005565 0.776443 -0.066572 251 251 251 255
0.026442 0.761512 -0.066403 255 255 255 255
-0.027406 0.859274 -0.097362 255 255 255 255
-0.005118 0.875042 -0.104807 255 255 255 255
-0.001665 0.855243 -0.115293 255 255 255 255
0.028090 0.858565 -0.098169 255 255 255 255
0.001993 0.795667 -0.117482 255 255 255 255
0.027753 0.829176 -0.096713 255 255 255 255
0.027727 0.771360 -0.086375 255 255 255 255
-0.025421 0.829582 -0.094924 255 255 255 255
-0.025889 0.788517 -0.085976 255 255 255 255
-0.041797 0.829366 -0.070478 255 255 255 255
-0.027371 0.746547 -0.051705 255 255 255 255
-0.005565 0.776443 -0.066572 255 255 255 255
0.027727 0.771360 -0.086375 246 246 246 255
0.027727 0.771360 -0.086375 242 242 242 255
0.040734 0.743368 -0.048504 255 255 255 255
-0.002918 0.773172 -0.102432 251 251 251 255
-0.015000 0.799751 -0.033636 255 255 255 255
-0.011978 0.731469 -0.089727 251 251 251 249
-0.025889 0.788517 -0.085976 253 253 253 253
-0.002918 0.773172 -0.102432 255 255 255 255
0.027727 0.771360 -0.086375 250 250 250 255
0.014810 0.731296 -0.088524 255 255 255 255
-0.152562 0.028661 -0.043671 255 255 255 255
-0.130236 0.105269 -0.084079 255 255 255 255
-0.089951 0.040320 -0.119562 255 255 255 255
0.004935 0.209277 -0.016227 255 255 255 255
-0.083547 0.031714 0.066286 255 255 255 255
0.007404 0.038311 -0.131403 255 255 255 255
0.113587 0.051576 -0.117896 255 255 255 255
0.156280 0.038229 -0.020371 255 255 255 255
-0.113337 0.080868 0.029479 255 255 255 255
-0.010907 0.032229 0.106816 255 255 255 255
0.101684 0.056040 0.076733 255 255 255 255
-0.101280 0.099929 -0.116087 255 255 255 255
-0.085471 0.189175 -0.133924 255 255 255 255
0.006571 0.146867 -0.139244 255 255 255 255
0.009194 0.217464 -0.138550 255 255 255 255
-0.072384 0.357621 -0.119461 255 255 255 255
-0.098633 0.260330 -0.089540 255 255 255 255
-0.220917 0.380977 -0.036967 255 255 255 255
-0.148725 0.463015 -0.069768 255 255 255 255
-0.145007 0.384803 -0.065261 255 255 255 255
-0.044700 0.499862 -0.114162 255 255 255 255
-0.124530 0.258401 -0.025351 255 255 255 255
-0.151996 0.384567 0.032322 255 255 255 255
-0.184427 0.476078 -0.012836 255 255 255 255
-0.219427 0.472950 0.004702 255 255 255 255
-0.208345 0.487078 -0.042368 255 255 255 255
-0.142829 0.109875 -0.045902 255 255 255 255
-0.174906 0.592348 -0.038622 255 255 255 255
-0.127013 0.630536 -0.066419 255 255 255 255
-0.177778 0.636240 -0.038663 255 255 255 255
-0.155135 0.671416 -0.045282 255 255 255 255
-0.180115 0.660713 -0.006980 255 255 255 255
-0.156702 0.689671 -0.010586 255 255 255 255
-0.085124 0.719799 -0.021650 255 255 255 255
-0.072692 0.706575 -0.051974 255 255 255 255
-0.053823 0.732877 -0.021772 255 255 255 255
-0.036835 0.788293 -0.023118 255 255 255 255
-0.049482 0.859559 -0.038984 255 255 255 255
-0.044471 0.902592 -0.025289 255 255 255 255
-0.167943 0.580048 0.023544 255 255 255 255
-0.059856 0.712683 0.010694 255 255 255 255
-0.043282 0.870993 0.019815 255 255 255 255
-0.020227 0.873994 0.036433 255 255 255 255
0.107872 0.136910 -0.098973 255 255 255 255
0.105455 0.212570 -0.107792 255 255 255 255
0.086063 0.297861 -0.111493 255 255 255 255
0.081871 0.461996 -0.111279 255 255 255 255
0.140051 0.384196 -0.061078 255 255 255 255
0.153894 0.108312 -0.026780 255 255 255 255
0.135965 0.212964 -0.012141 255 255 255 255
0.222612 0.393685 -0.043732 255 255 255 255
0.134095 0.603473 -0.062262 255 255 255 255
0.199033 0.576139 -0.038464 255 255 255 255
0.120769 0.296838 -0.069910 255 255 255 255
0.147429 0.386512 0.042285 255 255 255 255
0.122603 0.281898 0.031931 255 255 255 255
0.225858 0.395553 0.020253 255 255 255 255
0.184602 0.488184 -0.009579 255 255 255 255
0.024435 0.917447 -0.035139 255 255 255 255
0.015056 0.646015 -0.074189 255 255 255 255
0.057911 0.879981 -0.024356 255 255 255 255
0.082524 0.711483 -0.041631 255 255 255 255
0.180716 0.661000 -0.036371 255 255 255 255
0.057568 0.831312 -0.000684 255 255 255 255
-0.227057 0.390426 0.009841 255 255 255 255
-0.132860 0.498851 0.051471 255 255 255 255
-0.067853 0.108114 0.089546 255 255 255 255
-0.113869 0.270124 0.031167 255 255 255 255
0.031023 0.097664 0.111644 255 255 255 255
-0.016121 0.159525 0.122191 255 255 255 255
-0.151310 0.659186 0.023849 255 255 255 255
-0.051040 0.772115 0.024589 255 255 255 255
-0.006561 0.918891 0.001376 255 255 255 255
-0.052545 0.707770 0.028480 255 255 255 255
-0.085024 0.579695 0.058515 255 255 255 255
-0.036604 0.694087 0.038698 255 255 255 255
-0.037517 0.708387 0.054531 255 255 255 255
-0.030464 0.798709 0.048253 255 255 255 255
0.021825 0.877516 0.039422 255 255 255 255
0.127763 0.175687 0.041601 255 255 255 255
0.061704 0.266102 0.114826 255 255 255 255
-0.039776 0.283404 0.106952 255 255 255 255
0.060723 0.481908 0.074447 255 255 255 255
0.069065 0.714769 0.022363 255 255 255 255
0.067403 0.728628 -0.012525 255 255 255 255
0.024247 0.793076 0.061137 255 255 255 255
0.032760 0.695958 0.040033 255 255 255 255
0.153469 0.672363 0.023224 255 255 255 255
0.106313 0.658129 0.044053 255 255 255 255
0.139519 0.584463 0.032426 255 255 255 255
-0.006831 0.696973 0.067494 255 255 255 255
0.023500 0.700441 0.062824 255 255 255 255
0.056393 0.600496 0.060560 255 255 255 255
-0.013959 0.560820 0.077330 255 255 255 255
0.019829 0.316668 -0.126823 255 255 255 255
0.182741 0.680776 -0.006908 255 255 255 255
0.194984 0.592365 0.015641 255 255 255 255
-0.052755 0.433473 0.090412 255 255 255 255
3 0 1 2
3 3 4 5
3 4 6 5
3 6 7 8
3 9 10 11
3 12 13 14
3 15 16 17
3 18 19 15
3 8 7 20
3 21 22 20
3 21 3 23
3 21 4 3
3 24 25 26
3 23 22 21
3 27 24 28
3 11 10 25
3 1 0 10
3 29 20 27
3 29 8 20
3 17 13 30
3 17 30 31
3 32 0 2
3 19 2 1
3 33 2 19
3 19 1 34
3 3 9 11
3 3 5 9
3 24 26 35
3 36 31 30
3 12 30 13
3 17 16 37
3 38 39 31
3 18 33 19
3 18 35 40
3 19 34 41
3 15 19 41
3 41 34 12
3 21 20 7
3 23 3 11
3 4 7 6
3 21 7 4
3 11 25 23
3 15 17 31
3 25 24 22
3 28 24 39
3 27 22 24
3 25 22 23
3 0 25 10
3 27 28 29
3 20 22 27
3 26 25 0
3 28 31 36
3 29 28 36
3 42 43 44
3 45 42 44
3 46 42 45
3 45 44 47
3 45 47 48
3 45 48 49
3 50 42 46
3 51 46 45
3 45 49 52
3 52 51 45
3 53 43 54
3 53 55 44
3 56 54 57
3 53 44 43
3 54 58 57
3 59 60 61
3 57 60 62
3 58 63 61
3 61 63 64
3 61 64 65
3 59 66 67
3 68 50 63
3 60 67 69
3 60 69 70
3 70 69 71
3 70 71 72
3 69 73 71
3 72 74 75
3 76 75 77
3 30 76 77
3 30 78 36
3 79 80 8
3 8 80 6
3 69 66 81
3 75 82 77
3 78 83 79
3 80 79 83
3 80 83 84
3 85 55 56
3 86 56 87
3 48 55 85
3 56 86 85
3 87 88 89
3 48 85 90
3 49 48 90
3 91 90 86
3 92 93 94
3 91 86 95
3 96 97 89
3 92 98 99
3 6 100 5
3 88 101 93
3 9 102 10
3 5 102 9
3 12 93 101
3 12 103 93
3 89 88 93
3 93 104 94
3 105 10 102
3 64 106 65
3 66 106 107
3 106 64 107
3 50 108 109
3 46 110 111
3 74 112 82
3 82 113 77
3 80 84 114
3 112 115 82
3 112 116 117
3 115 118 82
3 82 118 113
3 113 119 83
3 84 83 119
3 114 84 120
3 113 118 119
3 121 90 91
3 96 99 98
3 52 49 121
3 121 97 122
3 123 122 124
3 122 96 124
3 111 110 122
3 123 111 122
3 120 105 102
3 125 126 1
3 125 105 120
3 120 127 125
3 125 128 129
3 129 130 131
3 132 117 128
3 84 127 120
3 127 133 125
3 134 135 124
3 44 55 47
3 55 53 54
3 56 55 54
3 57 58 61
3 43 68 58
3 54 43 58
3 60 59 67
3 61 60 57
3 42 68 43
3 58 68 63
3 59 61 65
3 59 106 66
3 106 59 65
3 68 42 50
3 62 70 101
3 70 62 60
3 70 72 76
3 70 76 101
3 12 101 76
3 76 30 12
3 76 72 75
3 30 77 78
3 36 78 79
3 69 67 66
3 73 69 81
3 72 71 73
3 72 73 74
3 6 80 114
3 136 56 57
3 57 62 136
3 136 62 88
3 56 136 87
3 87 136 88
3 48 47 55
3 86 87 95
3 89 95 87
3 85 86 90
3 92 89 93
3 97 91 95
3 89 97 95
3 96 89 99
3 89 92 99
3 94 98 92
3 62 101 88
3 12 34 103
3 103 34 1
3 102 5 100
3 126 103 1
3 93 103 104
3 10 105 1
3 103 126 137
3 103 137 104
3 137 94 104
3 137 138 94
3 6 114 100
3 108 50 46
3 63 109 64
3 109 63 50
3 123 64 109
3 109 108 123
3 139 64 123
3 107 64 139
3 135 139 124
3 111 108 46
3 123 108 111
3 81 112 73
3 74 73 112
3 83 78 113
3 78 77 113
3 66 107 81
3 112 81 107
3 115 112 117
3 115 117 118
3 112 107 116
3 135 116 107
3 117 116 135
3 117 132 118
3 119 118 132
3 117 135 134
3 128 117 134
3 135 107 139
3 121 49 90
3 97 121 91
3 138 98 94
3 96 98 131
3 131 124 96
3 96 122 97
3 124 139 123
3 110 52 121
3 52 110 51
3 110 121 122
3 100 120 102
3 114 120 100
3 125 137 126
3 137 125 129
3 137 129 138
3 129 128 130
3 131 98 138
3 129 131 138
3 127 119 133
3 133 132 128
3 133 119 132
3 127 84 119
3 133 128 125
3 131 134 124
3 134 131 130
3 130 128 134
3 51 110 46
3 82 75 74
3 1 105 125
3 79 29 36
3 79 8 29
